<svg xmlns="http://www.w3.org/2000/svg" width="1280" height="720" viewBox="0 0 1280 720" role="img" aria-label="单股情报与行情页示意图">
  <rect width="1280" height="720" fill="#05080d"/>
  <rect x="44" y="42" width="1192" height="84" fill="#07111b" stroke="#26374a"/>
  <text x="76" y="82" fill="#f8fafc" font-size="26" font-family="Arial, sans-serif" font-weight="800">单股情报中心 / 行情页</text>
  <text x="76" y="110" fill="#8fa0b7" font-size="15" font-family="Arial, sans-serif">从单只股票进入概览、事件、回测、交付和行情快照。</text>
  <rect x="44" y="160" width="570" height="462" fill="#07111b" stroke="#26374a"/>
  <text x="76" y="204" fill="#f6b73c" font-size="13" font-family="Arial, sans-serif" font-weight="700">STOCK INTEL</text>
  <text x="76" y="248" fill="#edf4ff" font-size="28" font-family="Arial, sans-serif" font-weight="800">股票情报</text>
  <text x="76" y="292" fill="#9fb0c6" font-size="15" font-family="Arial, sans-serif">概览 / 事件 / 回测 / 交付</text>
  <rect x="76" y="334" width="110" height="36" rx="3" fill="#f6b73c"/>
  <text x="116" y="357" fill="#05080d" font-size="14" font-family="Arial, sans-serif" font-weight="800">概览</text>
  <rect x="202" y="334" width="110" height="36" rx="3" fill="#0b1118" stroke="#2b3a4d"/>
  <text x="242" y="357" fill="#dbe7f6" font-size="14" font-family="Arial, sans-serif" font-weight="700">事件</text>
  <rect x="328" y="334" width="110" height="36" rx="3" fill="#0b1118" stroke="#2b3a4d"/>
  <text x="368" y="357" fill="#dbe7f6" font-size="14" font-family="Arial, sans-serif" font-weight="700">回测</text>
  <rect x="76" y="414" width="250" height="40" rx="3" fill="#0b1118" stroke="#2b3a4d"/>
  <text x="142" y="439" fill="#dbe7f6" font-size="14" font-family="Arial, sans-serif" font-weight="700">进入行情页</text>
  <rect x="666" y="160" width="570" height="462" fill="#07111b" stroke="#26374a"/>
  <text x="698" y="204" fill="#f6b73c" font-size="13" font-family="Arial, sans-serif" font-weight="700">MARKET QUOTE</text>
  <text x="698" y="248" fill="#edf4ff" font-size="28" font-family="Arial, sans-serif" font-weight="800">行情快照</text>
  <polyline points="716,474 770,440 824,454 878,394 932,420 986,352 1040,372 1094,310 1148,332" fill="none" stroke="#22c55e" stroke-width="4"/>
  <polygon points="716,474 770,440 824,454 878,394 932,420 986,352 1040,372 1094,310 1148,332 1148,520 716,520" fill="#22c55e" opacity="0.12"/>
  <text x="698" y="300" fill="#9fb0c6" font-size="15" font-family="Arial, sans-serif">最新价、涨跌幅、成交额、PE、PB、市值等指标。</text>
  <rect x="698" y="338" width="76" height="34" rx="17" fill="#0b1118" stroke="#2b3a4d"/>
  <text x="720" y="360" fill="#dbe7f6" font-size="13" font-family="Arial, sans-serif">30日</text>
  <rect x="790" y="338" width="76" height="34" rx="17" fill="#f6b73c"/>
  <text x="812" y="360" fill="#05080d" font-size="13" font-family="Arial, sans-serif" font-weight="800">90日</text>
  <rect x="882" y="338" width="82" height="34" rx="17" fill="#0b1118" stroke="#2b3a4d"/>
  <text x="902" y="360" fill="#dbe7f6" font-size="13" font-family="Arial, sans-serif">180日</text>
</svg>
